<svg width="128" height="128" viewBox="0 0 128 128" fill="none" xmlns="http://www.w3.org/2000/svg">
  <rect width="128" height="128" rx="24" fill="#2D2D2D"/>
  <path d="M86.1481 78.1481C65.037 78.1481 47.8519 60.963 47.8519 39.8519C47.8519 35.2593 48.6667 30.8889 50.0741 26.8148C35.4815 32.2963 25 46.2963 25 62.7037C25 83.8148 42.1852 101 63.2963 101C79.7037 101 93.7037 90.5185 99.1852 75.9259C95.1111 77.3333 90.7407 78.1481 86.1481 78.1481Z" fill="#6B4BFF"/>
  <path d="M86.1481 78.1481C65.037 78.1481 47.8519 60.963 47.8519 39.8519C47.8519 35.2593 48.6667 30.8889 50.0741 26.8148C35.4815 32.2963 25 46.2963 25 62.7037C25 83.8148 42.1852 101 63.2963 101C79.7037 101 93.7037 90.5185 99.1852 75.9259C95.1111 77.3333 90.7407 78.1481 86.1481 78.1481Z" fill="white" fill-opacity="0.2"/>
</svg> 